<?xml version="1.0" encoding="UTF-8" standalone="no"?> <svg id="icon" xmlns="http://www.w3.org/2000/svg" viewBox="0 0 340 340"><path d="M292.386,230.476a62.655,62.655,0,0,0-1.645-16.615,9.717,9.717,0,0,0,2.163-8.887,88.811,88.811,0,0,0-6.779-17.844,11.406,11.406,0,0,0,2.718-14.44,107.749,107.749,0,0,0-33.5-35.138c-7.486-5.108-16.633-2.877-23.075,2.917,1.223-6.889-.7-13.448-8.478-14.568-3.731-.252-10.082-1.854-13.334.572a51.553,51.553,0,0,1-5.139-9.5c3.724-5.379,4.5-11.9,4.915-18.355,8.751-1.57,9.625-11.129,10.365-19.279.294-4.829-2.726-8.581-6.683-11.132C216.222,34.717,193.81,21,190.361,19.1c-1.5-1.351-11.078-8.889-20.814-9.365-10.076,1.329-18.191,7.889-19.909,9.365-3.449,1.9-25.86,15.622-23.551,49.108-3.957,2.55-6.978,6.3-6.682,11.133.737,8.146,1.617,17.713,10.365,19.279.407,6.439,1.193,12.986,4.916,18.355a51.67,51.67,0,0,1-5.139,9.5c-3.236-2.424-9.615-.833-13.335-.574-7.777,1.119-9.7,7.682-8.48,14.567-1.511-1.176-2.959-2.2-4.287-3.054h0a17.153,17.153,0,0,0-18.788.138,107.748,107.748,0,0,0-33.5,35.14,11.405,11.405,0,0,0,2.719,14.437A88.869,88.869,0,0,0,47.1,204.974a9.679,9.679,0,0,0,2.125,8.84,74.673,74.673,0,0,0-1.372,16.542,15.263,15.263,0,0,0-8.6,12.4c-.973,15.469-1.915,30.061,17.927,29.914,12.784-.494,7.634-15.846,38.214-17.293a10.783,10.783,0,0,0,4.207-1.018,66.512,66.512,0,0,0,6.857,14.276c-5.929,2.947-4.892,8.527-4.924,13.973a10.871,10.871,0,0,0,7.954,10.425c26.6,7.4,42.768,25.549,48.487,33.01,3.7,5.146,10.111,4.121,15.592,4.172a10.725,10.725,0,0,0,8.465-4.172c5.719-7.461,21.893-25.611,48.487-33.01a10.871,10.871,0,0,0,7.954-10.425c-.03-5.386.979-11-4.852-14.075a66.722,66.722,0,0,0,6.785-14.174,10.784,10.784,0,0,0,4.208,1.018c30.649,1.475,25.361,16.763,38.212,17.294,19.841.145,18.906-14.447,17.928-29.915A15.255,15.255,0,0,0,292.386,230.476Zm-97.709-32.133a67.451,67.451,0,0,1-21.222,14.52v-28.2s5.276-.763,10.813-2.208a8.759,8.759,0,0,1,10.949,8.1A36.147,36.147,0,0,1,194.677,198.343Zm-54.765-41.156a127,127,0,0,1-5.107-20.109A68.545,68.545,0,0,0,167.563,159.2a7.254,7.254,0,0,0,4.735-.171c3.187-1.35,7.672-2.72,10.711-4.116a6.065,6.065,0,0,1,8.406,4.2,58.409,58.409,0,0,1,1,5.781,72.122,72.122,0,0,1-18.965,12.273v-8.79a3.512,3.512,0,0,0-2.735-3.473,3.459,3.459,0,0,0-4.176,3.382v8.881A75.926,75.926,0,0,1,139.912,157.187Zm26.632,27.479V212.76A67.085,67.085,0,0,1,133.8,179.386a13.869,13.869,0,0,0,8.375-10.013A79.26,79.26,0,0,0,166.544,184.666Zm-29.9-86.729,23.571,6.552a8.643,8.643,0,0,1,6.327,8.326v18.862A50.414,50.414,0,0,1,141.7,114.919C137.634,110.2,137.036,103.965,136.646,97.937Zm24.6-78.3c.931-.334,8.723-2.917,8.723,4.294v17c-2.1.707-4.148,1.5-6.144,2.366-1.47-6.734-3.826-14.511-7.548-20.616A40.264,40.264,0,0,1,161.244,19.632ZM150.59,26.657c3.438,5.812,5.562,13.587,6.807,19.7a120.072,120.072,0,0,0-24.571,17.255C132.786,41.636,145.07,30.531,150.59,26.657Zm-19.044,65.1c-3.8.8-4.828-7.228-5.239-12.727-.531-5.625,25.583-19.7,43.692-23.4a108.019,108.019,0,0,1,22.892,8c.146.092,3.1,2.071,1.775,11.206l-1.729,6.746c-.349,2.042-1.638,7.935-9.217,7.907C165.579,89.44,158.934,88.1,131.546,91.752Zm.725,64.382c.9,4.321,4.678,8.756,2.676,13.254a7.04,7.04,0,0,1-8.567,3.786,17.108,17.108,0,0,0-1.945-12.978A12.779,12.779,0,0,0,132.271,156.134Zm-15.333-23.361,7.243-.766a2.945,2.945,0,0,1,3.215,2.5c.52,3.557,1.293,7.931,2.411,12.659-1.415,3.981-5.1,8.016-10.3,5.331-1.233-1.652-2.5-3.18-3.766-4.586a90.688,90.688,0,0,1-1.433-12.158A2.9,2.9,0,0,1,116.938,132.773ZM87.947,249.116c-9.051,1.318-20.509,5.025-27.414,14.935-1.86,2.734-5.741,1.4-8.424,1.233a6.7,6.7,0,0,1-5.81-5.833,77.951,77.951,0,0,1-.169-16.065,8.414,8.414,0,0,1,7.816-7.634c4.336-.316,9.725-.572,15.823-.572,5.607.305,17.451-1.339,18.178,6.817Zm-33.2-20.346a68.581,68.581,0,0,1,.9-11.694,112.161,112.161,0,0,1,19.487,3.191c4.211,1.5,3.839,3.275,3.212,8.175A226.065,226.065,0,0,0,54.744,228.77ZM90.97,210.843c-.79,1.835-1.779,4.093-2.761,6.243a118.733,118.733,0,0,0-31.861-6.876,2.767,2.767,0,0,1-2.56-3.516,81.9,81.9,0,0,1,6.448-16.827c12.761,3.861,20.447,6.954,29.2,14.04A6.018,6.018,0,0,1,90.97,210.843Zm7.889-19.4.005-.014s-3.436,5.922-11.214,2.478l0,0a103.624,103.624,0,0,0-27.741-11.3,4.459,4.459,0,0,1-2.751-6.507,100.588,100.588,0,0,1,31.312-32.8,10.242,10.242,0,0,1,11.219-.094h0a55.725,55.725,0,0,1,15.564,15.211c1.11,2.115,2.188,6.841-3.406,14.455C106.079,180.744,102.963,184.779,98.859,191.443Zm6.155,57.157a10.634,10.634,0,0,0,.739-4.234c18.423-15.945,25.117-36.631,27.434-51.755-.538-.421,8.592,22.4,33.357,34.692v73.135c-17.89-19.977-42.706-30.3-52.371-32.812A60.489,60.489,0,0,1,105.014,248.6Zm92.017,53.319c-.642.472-1.266.947-1.882,1.419h0a103.519,103.519,0,0,0-18.6,18.5,3.728,3.728,0,0,1-2.981,1.467h-7.126a3.73,3.73,0,0,1-2.982-1.467c-6.141-8.012-23.514-27.5-52.118-35.463a3.938,3.938,0,0,1-2.9-3.767v-6.337c2.2-9.055,48.781,17.861,59.335,36.919a3.477,3.477,0,0,0,4.871-.4,152.653,152.653,0,0,1,29.611-25.457A16.067,16.067,0,0,1,197.031,301.919Zm2.533-21.146a166.358,166.358,0,0,0-26.109,21.058v-73.49c8.536-1.65,19.465-5.293,31.974-14.529a70.949,70.949,0,0,0,4.643,18.1C214.381,242.758,212.7,263.775,199.564,280.773Zm39.717-76.6a300.777,300.777,0,0,0-16.034-27.134c-2.842-3.648-4.452-8.423-2.1-12.658a57.137,57.137,0,0,1,8.849-12.5c-.142.177-.292.355-.429.53a15.721,15.721,0,0,1,21.477-.734c5.5,4.755,14.141,14.146,24.813,32.111C255.333,189.875,244.363,198.812,239.281,204.176Zm37.318,6.859a106.943,106.943,0,0,0-27.132,6.948,4.454,4.454,0,0,1-5.856-2.862l-1.219-4.008a58.209,58.209,0,0,1,22.1-13.967C273.606,194.587,275.374,203.652,276.6,211.035Zm-.833,48.658c-9.289-9.054-22.971-10.95-30.921-11.22a3.836,3.836,0,0,1-3.689-4.153l.367-4.128a3.823,3.823,0,0,1,3.364-3.455,197.16,197.16,0,0,1,20.8-1.507c3.035.066,10.219,1.053,10.69,8.89A87.875,87.875,0,0,1,275.766,259.693Zm-24.539-30.588v-4.432a112.488,112.488,0,0,1,23.02-6.373s3.012,2,3.438,10.1A218.736,218.736,0,0,0,251.227,229.105Z" style="fill:#FFFFFF"/><path d="M173.64,81.014v-16.6c-.077-4.537-6.833-4.545-6.911,0v16.6C166.805,85.55,173.562,85.559,173.64,81.014Z" style="fill:#FFFFFF"/><path d="M152.27,70.724l1.114,10.649c.558,4.518,7.272,3.8,6.874-.719l-1.116-10.649C158.6,65.492,151.872,66.2,152.27,70.724Z" style="fill:#FFFFFF"/><path d="M145.7,74.831c-1.2-4.376-7.748-2.7-6.695,1.716l1.729,6.746c1.22,4.395,7.747,2.687,6.695-1.717Z" style="fill:#FFFFFF"/><path d="M183.189,84.45a3.46,3.46,0,0,0,3.8-3.077L188.1,70.724c.4-4.52-6.335-5.238-6.874-.719l-1.114,10.649A3.454,3.454,0,0,0,183.189,84.45Z" style="fill:#FFFFFF"/><path d="M89.275,182.768c-3.043,3.148,1.563,7.753,4.711,4.71C97.029,184.33,92.423,179.725,89.275,182.768Z" style="fill:#FFFFFF"/><path d="M79.107,205.455c-3.042,3.149,1.563,7.753,4.711,4.71C86.861,207.017,82.255,202.412,79.107,205.455Z" style="fill:#FFFFFF"/><path d="M240.565,185.26c-3.043,3.148,1.563,7.753,4.711,4.71C248.319,186.822,243.713,182.217,240.565,185.26Z" style="fill:#FFFFFF"/><path d="M252.262,206.551c-3.043,3.148,1.562,7.753,4.71,4.71C260.015,208.112,255.409,203.507,252.262,206.551Z" style="fill:##FFFFFF"/></svg>